# xmcd
#
# Track frame offsets: 
#        150
#        10971
#        20858
#        30467
#        43690
#        56239
#        70326
#        81325
#        96947
#        109502
#        118287
#        133298
#        149195
#        160662
#        178398
#        189890
#        207781
#        228647
#        245507
#        258325
#        272078
#        286818
#        296718
#
# Disc length: 4105 seconds
#
# Revision: 0
# Processed by: cddbd v1.5.2PL0 Copyright (c) Steve Scherf et al.
# Submitted via: ExactAudioCopyFreeDBPlugin 1.0
#
DISCID=69100717
DTITLE=Big Maybelle - The Rojac Years
DYEAR=2012
DGENRE=Blues
TTITLE0=96 Tears
TTITLE1=Love Is A Hurtin Thing
TTITLE2=Turn The World Around The Other Way
TTITLE3=Mama ( He Treats Your Daughter Mean)
TTITLE4=Keep That Man
TTITLE5=Dont Pass Me By
TTITLE6=Careless Love
TTITLE7=Ite Been Raining
TTITLE8=I Can't Wait Any Longer
TTITLE9=Quittin' Time
TTITLE10=Heaven Will Welcome You Dr.King
TTITLE11=Old Love Never Dies
TTITLE12=No Better For You
TTITLE13=Big Sweet Daddy
TTITLE14=Blame It On Your Love
TTITLE15=Why Was I Born
TTITLE16=The Masquerade Is Over
TTITLE17=Maybelle Sings The Blues
TTITLE18=It's A Man's Man's World 
TTITLE19=That's Life
TTITLE20=How It Lies
TTITLE21=Cold Cold Heart 
TTITLE22=I am Lost
EXTD=
EXTT0=
EXTT1=
EXTT2=
EXTT3=
EXTT4=
EXTT5=
EXTT6=
EXTT7=
EXTT8=
EXTT9=
EXTT10=
EXTT11=
EXTT12=
EXTT13=
EXTT14=
EXTT15=
EXTT16=
EXTT17=
EXTT18=
EXTT19=
EXTT20=
EXTT21=
EXTT22=
PLAYORDER=
